<?xml version="1.0" encoding="UTF-8"?>
<svg id="Layer_2" data-name="Layer 2" xmlns="http://www.w3.org/2000/svg" viewBox="0 0 226.8 102.35">
  <defs>
    <style>
      .cls-1, .cls-2 {
        fill: #989798;
      }

      .cls-3, .cls-4 {
        fill: #262262;
      }

      .cls-5 {
        fill: #72c160;
      }

      .cls-6, .cls-2, .cls-4 {
        font-family: Menlo-Regular, Menlo;
        font-size: 14px;
      }
    </style>
  </defs>
  <g id="Layer_1-2" data-name="Layer 1">
    <path class="cls-1" d="M209.87,59.35c-1.06-.31-2.17.29-2.48,1.35-.31,1.06.29,2.17,1.35,2.48l13.06,3.7c.87.26.97,1.46.15,1.86l-17.68,8.57c-4.11,1.99-3.61,8,.77,9.29l12.81,3.76h.05c1.04.29,2.12-.31,2.43-1.35.31-1.06-.3-2.17-1.35-2.48l-12.81-3.76c-.88-.26-.98-1.46-.15-1.86l17.68-8.57c4.1-1.99,3.61-7.99-.76-9.28l-13.06-3.7Z"/>
    <path class="cls-5" d="M224.25,54.92c1.06-.31,2.17.3,2.48,1.36.31,1.06-.3,2.17-1.36,2.48l-17.38,5.05c-2.64.77-2.94,4.38-.47,5.57l15.2,7.36c5.76,2.79,5.06,11.2-1.08,13l-17.17,5.03c-1.06.31-2.17-.3-2.48-1.36-.31-1.06.3-2.17,1.36-2.48l17.17-5.03c2.63-.77,2.93-4.38.46-5.57l-15.2-7.36c-5.76-2.79-5.05-11.22,1.1-13.01l17.38-5.05Z"/>
    <text class="cls-4" transform="translate(.14 13.1)"><tspan x="0" y="0" xml:space="preserve">     </tspan></text>
    <text class="cls-6" transform="translate(.14 12.1)"><tspan class="cls-3" x="0" y="0">███████</tspan><tspan class="cls-1" x="59" y="0">╗</tspan><tspan class="cls-3" x="67.43" y="0">███████</tspan><tspan class="cls-1" x="126.43" y="0">╗</tspan><tspan class="cls-3" x="134.86" y="0" xml:space="preserve"> █████</tspan><tspan class="cls-1" x="185.43" y="0">╗</tspan><tspan class="cls-3" x="193.86" y="0"> </tspan></text>
    <text class="cls-6" transform="translate(.14 29.9)"><tspan class="cls-3" x="0" y="0">██</tspan><tspan class="cls-1" x="16.86" y="0">╔════╝</tspan><tspan class="cls-3" x="67.43" y="0">██</tspan><tspan class="cls-1" x="84.29" y="0">╔════╝</tspan><tspan class="cls-3" x="134.86" y="0">██</tspan><tspan class="cls-1" x="151.72" y="0">╔══</tspan><tspan class="cls-3" x="177" y="0">██</tspan><tspan class="cls-1" x="193.86" y="0">╗</tspan></text>
    <text class="cls-6" transform="translate(.14 46.7)"><tspan class="cls-3" x="0" y="0">███████</tspan><tspan class="cls-1" x="59" y="0">╗</tspan><tspan class="cls-3" x="67.43" y="0">███████</tspan><tspan class="cls-1" x="126.43" y="0">╗</tspan><tspan class="cls-3" x="134.86" y="0">███████</tspan><tspan class="cls-1" x="193.86" y="0">║</tspan></text>
    <text class="cls-6" transform="translate(.14 63.5)"><tspan class="cls-1" x="0" y="0">╚════</tspan><tspan class="cls-3" x="42.14" y="0">██</tspan><tspan class="cls-1" x="59" y="0">║╚════</tspan><tspan class="cls-3" x="109.57" y="0">██</tspan><tspan class="cls-1" x="126.43" y="0">║</tspan><tspan class="cls-3" x="134.86" y="0">██</tspan><tspan class="cls-1" x="151.72" y="0">╔══</tspan><tspan class="cls-3" x="177" y="0">██</tspan><tspan class="cls-1" x="193.86" y="0">║</tspan></text>
    <text class="cls-6" transform="translate(.14 80.3)"><tspan class="cls-3" x="0" y="0">███████</tspan><tspan class="cls-1" x="59" y="0">║</tspan><tspan class="cls-3" x="67.43" y="0">███████</tspan><tspan class="cls-1" x="126.43" y="0">║</tspan><tspan class="cls-3" x="134.86" y="0">██</tspan><tspan class="cls-1" x="151.72" y="0">║</tspan><tspan class="cls-3" x="160.15" y="0" xml:space="preserve">  ██</tspan><tspan class="cls-1" x="193.86" y="0">║</tspan></text>
    <text class="cls-2" transform="translate(.14 97.1)"><tspan x="0" y="0" xml:space="preserve">╚══════╝╚══════╝╚═╝  ╚═╝</tspan></text>
  </g>
</svg>